<?xml version="1.0" standalone="no"?>
<!DOCTYPE svg PUBLIC "-//W3C//DTD SVG 20010904//EN"
 "http://www.w3.org/TR/2001/REC-SVG-20010904/DTD/svg10.dtd">
<svg version="1.0" xmlns="http://www.w3.org/2000/svg"
 width="1149.000000pt" height="479.000000pt" viewBox="0 0 1149.000000 479.000000"
 preserveAspectRatio="xMidYMid meet">

<g transform="translate(0.000000,479.000000) scale(0.100000,-0.100000)"
fill="#FFFFFF" stroke="none">
<path d="M6656 4210 c-38 -58 -124 -159 -246 -288 l-188 -199 -324 -174 c-313
-169 -326 -177 -418 -264 -77 -73 -109 -113 -170 -212 -41 -67 -110 -163 -153
-212 l-78 -91 -132 -40 c-73 -23 -143 -45 -158 -49 -23 -8 -32 0 -130 121
-114 142 -180 210 -489 494 -113 104 -243 229 -290 277 l-85 87 -215 -100
-215 -100 -95 -98 c-102 -106 -168 -150 -348 -231 -134 -60 -362 -121 -451
-121 -18 0 -59 -24 -122 -70 -93 -70 -96 -74 -209 -250 l-115 -180 -345 -193
c-602 -338 -723 -411 -952 -579 -120 -88 -218 -161 -218 -164 0 -2 17 4 37 15
54 27 276 102 455 155 279 82 396 108 526 117 204 13 347 65 498 177 77 57
124 104 287 285 126 139 344 277 473 297 77 13 134 39 291 136 59 37 127 75
150 85 23 10 137 36 253 59 l212 41 382 -215 382 -216 99 -148 99 -148 104
-69 c190 -128 332 -267 348 -340 13 -58 46 -108 132 -194 92 -91 293 -256 438
-360 l87 -61 266 1 266 0 -180 65 c-99 35 -195 71 -212 79 -63 28 -296 236
-359 319 -105 140 -205 290 -228 341 -25 55 -145 176 -299 300 -47 39 -86 72
-86 75 0 3 140 68 312 145 171 77 436 199 587 272 l275 132 47 108 c31 73 54
112 70 121 12 6 77 31 143 55 l120 42 47 85 47 84 95 48 96 48 83 -41 c73 -36
101 -59 262 -219 l180 -179 315 -207 c280 -185 330 -221 450 -334 175 -164
282 -257 374 -325 41 -30 90 -74 109 -97 46 -57 118 -182 147 -255 l23 -60
187 -96 188 -97 356 -100 c196 -55 359 -100 363 -100 3 0 -68 50 -158 112
-223 151 -466 326 -571 410 -86 68 -88 71 -153 198 -36 71 -65 133 -65 138 0
6 24 27 53 48 28 21 98 83 154 137 l102 100 112 -76 c68 -47 166 -128 254
-211 131 -125 148 -137 226 -169 l84 -34 255 -256 c312 -313 293 -302 505
-302 176 0 394 23 355 37 -14 5 -59 26 -100 45 -64 31 -95 56 -210 172 -90 91
-163 176 -219 256 -101 144 -152 200 -248 271 -75 57 -116 102 -128 144 -17
59 -76 121 -192 200 -96 67 -325 293 -354 350 -13 28 -24 71 -27 112 -3 44 -9
69 -18 72 -33 13 -339 -174 -494 -300 -121 -99 -232 -171 -281 -184 -44 -12
-123 -1 -181 23 -45 20 -429 376 -500 464 -67 83 -138 191 -138 209 0 43 -145
152 -299 226 -74 35 -110 64 -295 232 -200 183 -543 476 -555 476 -3 0 -32
-41 -65 -90z"/>
<path d="M1120 915 l0 -35 95 0 95 0 0 -190 0 -190 35 0 35 0 0 190 0 190 95
0 95 0 0 35 0 35 -225 0 -225 0 0 -35z"/>
<path d="M1760 725 l0 -225 30 0 30 0 0 60 0 60 108 0 108 0 59 -60 c44 -45
66 -60 87 -60 42 0 36 28 -17 80 l-45 44 34 28 c43 35 60 84 54 155 -5 62 -29
100 -79 125 -28 15 -62 18 -201 18 l-168 0 0 -225z m362 138 c14 -12 18 -31
18 -76 0 -94 -5 -97 -177 -97 l-143 0 0 95 0 95 142 0 c118 0 145 -3 160 -17z"/>
<path d="M2500 933 c-19 -10 -45 -33 -57 -52 -22 -32 -23 -44 -23 -207 l0
-174 35 0 35 0 0 60 0 60 160 0 160 0 0 -60 0 -60 30 0 30 0 0 175 c0 192 -5
216 -57 251 -42 28 -263 33 -313 7z m290 -73 c16 -16 20 -33 20 -95 l0 -75
-160 0 -160 0 0 77 c0 111 3 113 157 113 110 0 125 -2 143 -20z"/>
<path d="M3097 944 c-4 -4 -7 -106 -7 -226 l0 -218 35 0 35 0 -2 223 -3 222
-25 3 c-14 2 -29 0 -33 -4z"/>
<path d="M3380 725 l0 -225 225 0 225 0 0 30 0 30 -195 0 -195 0 0 195 0 195
-30 0 -30 0 0 -225z"/>
<path d="M4430 725 l0 -225 30 0 30 0 0 60 0 60 128 0 c148 0 188 9 227 50 25
27 30 40 33 99 5 90 -14 132 -72 161 -37 18 -62 20 -209 20 l-167 0 0 -225z
m356 147 c38 -25 46 -114 13 -156 -20 -26 -21 -26 -165 -26 l-144 0 0 95 0 95
143 0 c78 0 147 -4 153 -8z"/>
<path d="M5090 725 l0 -225 30 0 30 0 0 60 0 60 108 0 108 0 59 -60 c44 -45
66 -60 87 -60 41 0 36 27 -18 81 l-45 46 26 17 c44 29 65 74 65 142 0 47 -5
69 -23 95 -40 61 -71 69 -259 69 l-168 0 0 -225z m362 138 c14 -12 18 -31 18
-76 0 -94 -5 -97 -177 -97 l-143 0 0 95 0 95 142 0 c118 0 145 -3 160 -17z"/>
<path d="M5823 935 c-60 -26 -73 -62 -73 -213 0 -211 11 -222 224 -222 141 0
145 1 175 26 43 36 53 81 49 216 -3 131 -15 158 -79 190 -44 23 -246 25 -296
3z m289 -72 c16 -14 18 -33 18 -144 0 -163 4 -159 -162 -159 -159 0 -158 -1
-158 158 0 165 -3 162 157 162 104 0 130 -3 145 -17z"/>
<path d="M6380 915 l0 -35 95 0 95 0 0 -190 0 -190 35 0 35 0 0 190 0 190 95
0 95 0 0 35 0 35 -225 0 -225 0 0 -35z"/>
<path d="M7020 725 l0 -225 225 0 225 0 0 30 0 30 -195 0 -195 0 0 65 0 65
160 0 160 0 0 30 0 30 -160 0 -160 0 0 65 0 65 195 0 195 0 0 35 0 35 -225 0
-225 0 0 -225z"/>
<path d="M7745 931 c-64 -30 -75 -59 -75 -206 0 -209 16 -225 228 -225 153 0
174 7 207 70 22 42 19 50 -20 50 -23 0 -35 -5 -35 -13 0 -8 -8 -21 -18 -30
-15 -14 -41 -17 -140 -17 -118 0 -121 0 -141 26 -18 23 -21 41 -21 131 0 99 9
138 34 155 6 4 66 8 133 8 125 0 153 -8 153 -46 0 -9 11 -14 36 -14 34 0 36 1
29 28 -9 35 -42 71 -82 88 -51 22 -237 18 -288 -5z"/>
<path d="M8294 936 c-3 -8 -4 -23 -2 -33 3 -16 16 -18 101 -21 l97 -3 0 -189
0 -190 30 0 30 0 0 190 0 189 98 3 97 3 0 30 0 30 -223 3 c-188 2 -223 0 -228
-12z"/>
<path d="M8937 943 c-4 -3 -7 -105 -7 -225 l0 -218 35 0 35 0 0 225 0 225 -28
0 c-16 0 -32 -3 -35 -7z"/>
<path d="M9290 933 c-19 -10 -45 -33 -57 -52 -21 -31 -23 -46 -23 -153 0 -131
11 -171 55 -206 25 -20 39 -22 167 -22 213 0 228 14 228 220 0 205 -17 223
-210 228 -105 3 -131 0 -160 -15z m290 -73 c18 -18 20 -33 20 -140 0 -161 1
-160 -158 -160 -165 0 -162 -3 -162 157 0 168 -5 163 157 163 110 0 125 -2
143 -20z"/>
<path d="M9880 725 l0 -225 30 0 30 0 2 169 3 169 155 -168 c147 -160 157
-169 193 -169 l37 -1 -2 223 -3 222 -30 0 -30 0 -5 -166 -5 -167 -158 169
c-135 143 -163 169 -188 169 l-29 0 0 -225z"/>
</g>
</svg>
