<?xml version="1.0" standalone="no"?>
<!DOCTYPE svg PUBLIC "-//W3C//DTD SVG 20010904//EN" "http://www.w3.org/TR/2001/REC-SVG-20010904/DTD/svg10.dtd">
<!-- Created using Krita: https://krita.org -->
<svg xmlns="http://www.w3.org/2000/svg"
    xmlns:xlink="http://www.w3.org/1999/xlink"
    width="1065.6pt"
    height="324pt"
    viewBox="0 0 1065.6 324">
    <defs />
    <path id="shape0" transform="matrix(0.1 0 0 -0.1 10.0710587472729 317.5)" fill="#ffffff"
        stroke-opacity="0" stroke="#ffffff" stroke-width="0" stroke-linecap="square"
        stroke-linejoin="bevel"
        d="M6146 3020C6108 2962 6022 2861 5900 2732L5712 2533L5388 2359C5075 2190 5062 2182 4970 2095C4893 2022 4861 1982 4800 1883C4759 1816 4690 1720 4647 1671L4569 1580L4437 1540C4364 1517 4294 1495 4279 1491C4256 1483 4247 1491 4149 1612C4035 1754 3969 1822 3660 2106C3547 2210 3417 2335 3370 2383L3285 2470L3070 2370L2855 2270L2760 2172C2658 2066 2592 2022 2412 1941C2278 1881 2050 1820 1961 1820C1943 1820 1902 1796 1839 1750C1746 1680 1743 1676 1630 1500L1515 1320L1170 1127C568 789 447 716 218 548C98 460 0 387 0 384C0 382 17 388 37 399C91 426 313 501 492 554C771 636 888 662 1018 671C1222 684 1365 736 1516 848C1593 905 1640 952 1803 1133C1929 1272 2147 1410 2276 1430C2353 1443 2410 1469 2567 1566C2626 1603 2694 1641 2717 1651C2740 1661 2854 1687 2970 1710L3182 1751L3564 1536L3946 1320L4045 1172L4144 1024L4248 955C4438 827 4580 688 4596 615C4609 557 4642 507 4728 421C4820 330 5021 165 5166 61L5253 0L5519 1L5785 1L5605 66C5506 101 5410 137 5393 145C5330 173 5097 381 5034 464C4929 604 4829 754 4806 805C4781 860 4661 981 4507 1105C4460 1144 4421 1177 4421 1180C4421 1183 4561 1248 4733 1325C4904 1402 5169 1524 5320 1597L5595 1729L5642 1837C5673 1910 5696 1949 5712 1958C5724 1964 5789 1989 5855 2013L5975 2055L6022 2140L6069 2224L6164 2272L6260 2320L6343 2279C6416 2243 6444 2220 6605 2060L6785 1881L7100 1674C7380 1489 7430 1453 7550 1340C7725 1176 7832 1083 7924 1015C7965 985 8014 941 8033 918C8079 861 8151 736 8180 663L8203 603L8390 507L8578 410L8934 310C9130 255 9293 210 9297 210C9300 210 9229 260 9139 322C8916 473 8673 648 8568 732C8482 800 8480 803 8415 930C8379 1001 8350 1063 8350 1068C8350 1074 8374 1095 8403 1116C8431 1137 8501 1199 8557 1253L8659 1353L8771 1277C8839 1230 8937 1149 9025 1066C9156 941 9173 929 9251 897L9335 863L9590 607C9902 294 9883 305 10095 305C10271 305 10489 328 10450 342C10436 347 10391 368 10350 387C10286 418 10255 443 10140 559C10050 650 9977 735 9921 815C9820 959 9769 1015 9673 1086C9598 1143 9557 1188 9545 1230C9528 1289 9469 1351 9353 1430C9257 1497 9028 1723 8999 1780C8986 1808 8975 1851 8972 1892C8969 1936 8963 1961 8954 1964C8921 1977 8615 1790 8460 1664C8339 1565 8228 1493 8179 1480C8135 1468 8056 1479 7998 1503C7953 1523 7569 1879 7498 1967C7431 2050 7360 2158 7360 2176C7360 2219 7215 2328 7061 2402C6987 2437 6951 2466 6766 2634C6566 2817 6223 3110 6211 3110C6208 3110 6179 3069 6146 3020Z"
        />
</svg>